<svg width="35" height="35" viewBox="0 0 35 35" fill="none" xmlns="http://www.w3.org/2000/svg">
<path d="M21.1538 0.107302C20.8336 0.24333 20.4989 0.665241 20.442 0.994098C20.3493 1.55914 20.6841 2.16715 21.2107 2.36035C21.3461 2.41043 22.9763 2.4392 26.1225 2.4392H30.8354L24.521 8.78354C20.0789 13.2467 18.1713 15.2135 18.0928 15.3996C17.8934 15.9003 17.9931 16.3936 18.3848 16.7587C18.7619 17.1093 19.2034 17.1877 19.6802 16.9949C19.8655 16.916 21.823 14.9993 26.265 10.5362L32.5794 4.19187V8.93415C32.5794 14.1555 32.5652 13.9552 33.0279 14.3629C33.4835 14.7635 34.1527 14.7348 34.6369 14.2915C35.0141 13.941 34.9999 14.1555 34.9999 7.34629C34.9999 3.04759 34.9787 0.951869 34.9218 0.815842C34.8221 0.54416 34.516 0.222029 34.2382 0.107676C33.9035 -0.0358253 21.4741 -0.0358256 21.1538 0.107302Z" fill="black"/>
<path d="M15.3058 18.0137C15.1422 18.085 12.8285 20.3589 8.7428 24.4628L2.42193 30.8047V26.0643C2.42193 20.852 2.43606 21.0451 1.97341 20.6376C1.3687 20.1015 0.36493 20.366 0.0800523 21.1381C-0.0266841 21.4168 -0.0266841 33.9004 0.0800523 34.1795C0.179722 34.4511 0.485799 34.7727 0.763239 34.8874C1.10502 35.0375 13.4905 35.0375 13.8319 34.8874C14.565 34.5728 14.8071 33.6005 14.2875 33.0069C13.8818 32.5422 14.0811 32.5564 8.88487 32.5564H4.16541L10.4792 26.2073C14.9216 21.753 16.8291 19.7866 16.9072 19.601C17.1065 19.1004 17.0069 18.6069 16.6153 18.2423C16.2382 17.8919 15.7755 17.8064 15.3058 18.0137Z" fill="black"/>
</svg>
