<svg width="18" height="43" viewBox="0 0 18 43" fill="none" xmlns="http://www.w3.org/2000/svg">
<path d="M15.0603 0.000325308C14.732 0.00553635 14.4079 0.0753707 14.1066 0.205846C13.8053 0.336321 13.5326 0.524878 13.3042 0.760747C13.0757 0.996616 12.896 1.27518 12.7752 1.58053C12.6545 1.88587 12.595 2.21202 12.6003 2.54033V40.2403C12.6003 40.9034 12.8637 41.5393 13.3326 42.0081C13.8014 42.4769 14.4373 42.7403 15.1003 42.7403C15.7634 42.7403 16.3993 42.4769 16.8681 42.0081C17.3369 41.5393 17.6003 40.9034 17.6003 40.2403V2.54033C17.6057 2.20528 17.5437 1.87255 17.418 1.56194C17.2923 1.25133 17.1054 0.969175 16.8684 0.732228C16.6315 0.495282 16.3493 0.308386 16.0387 0.182653C15.7281 0.0569193 15.3954 -0.00507977 15.0603 0.000325308V0.000325308ZM2.46032 0.000325308C2.132 0.00553635 1.80793 0.0753707 1.50661 0.205846C1.20529 0.336321 0.932623 0.524878 0.704183 0.760747C0.475742 0.996616 0.29599 1.27518 0.175221 1.58053C0.0544529 1.88587 -0.00496993 2.21202 0.000325157 2.54033V40.2403C0.000325157 40.9034 0.263723 41.5393 0.732564 42.0081C1.2014 42.4769 1.83728 42.7403 2.50033 42.7403C3.16337 42.7403 3.79925 42.4769 4.26809 42.0081C4.73693 41.5393 5.00033 40.9034 5.00033 40.2403V2.54033C5.00573 2.20528 4.94372 1.87255 4.81798 1.56194C4.69225 1.25133 4.50537 0.969175 4.26842 0.732228C4.03148 0.495282 3.74932 0.308386 3.43871 0.182653C3.1281 0.0569193 2.79537 -0.00507977 2.46032 0.000325308V0.000325308Z" fill="black"/>
</svg>
